<svg width="181" height="181" viewBox="0 0 181 181" fill="none" xmlns="http://www.w3.org/2000/svg">
<path d="M156.371 0.233398C169.626 0.233398 180.371 10.9786 180.371 24.2334V156.233C180.371 169.488 169.626 180.233 156.371 180.233H24.3711C11.1163 180.233 0.371094 169.488 0.371094 156.233V24.2334C0.371094 10.9786 11.1163 0.233399 24.3711 0.233398H156.371ZM37.1064 35.2383L70.8311 79.6777V56.9854H98.251C117.762 55.8972 122.694 93.5448 98.251 93.5449H80.916L116.531 145.233H143.636L119.052 109.935C138.722 104.51 156.512 53.7836 111.949 37.3887C107.934 35.9116 51.475 35.1703 37.1064 35.2383ZM41.0996 140.151H53.0996V128.151H41.0996V140.151ZM59.0996 140.151H71.0996V128.151H59.0996V140.151ZM41.0996 121.73H53.0996V109.73H41.0996V121.73ZM59.0996 121.73H71.0996V109.73H59.0996V121.73Z" fill="#7A60E5"/>
</svg>
